<svg xmlns="http://www.w3.org/2000/svg" viewBox="0 0 70 24"><defs><style>.cls-1{fill:#1a1a1a;}</style></defs><g id="icon"><path class="cls-1" d="M9.88,15.46A3.64,3.64,0,0,1,8.61,16.6a3.54,3.54,0,0,1-1.73.4,4.38,4.38,0,0,1-1.82-.36,3.89,3.89,0,0,1-1.35-1,4.43,4.43,0,0,1-.85-1.44,5.55,5.55,0,0,1,0-3.6,4.84,4.84,0,0,1,.87-1.5,4.11,4.11,0,0,1,1.36-1,4.21,4.21,0,0,1,1.77-.37,3.75,3.75,0,0,1,1.54.34,3.36,3.36,0,0,1,1.23,1l.1.14L11.39,8l-.11-.14A4.52,4.52,0,0,0,9.33,6.36a6.31,6.31,0,0,0-2.4-.48,6.94,6.94,0,0,0-2.62.49,6,6,0,0,0-2,1.38A6.36,6.36,0,0,0,1,9.85a7.27,7.27,0,0,0-.47,2.63A6.49,6.49,0,0,0,.92,14.8,6.41,6.41,0,0,0,4.2,18.32a6.12,6.12,0,0,0,2.64.56,6,6,0,0,0,1.89-.27A6.66,6.66,0,0,0,10.12,18a5,5,0,0,0,.93-.72,5.44,5.44,0,0,0,.49-.56l.1-.14L10,15.31Z"/><polygon class="cls-1" points="21.92 11.19 16.03 11.19 16.03 6.19 14.05 6.19 14.05 18.58 16.03 18.58 16.03 13.07 21.92 13.07 21.92 18.58 23.9 18.58 23.9 6.19 21.92 6.19 21.92 11.19"/><polygon class="cls-1" points="29.48 13.19 35.19 13.19 35.19 11.31 29.48 11.31 29.48 8.07 35.61 8.07 35.61 6.19 27.5 6.19 27.5 18.58 35.92 18.58 35.92 16.7 29.48 16.7 29.48 13.19"/><polygon class="cls-1" points="49.31 15.41 46.6 6.19 44.47 6.19 41.76 15.41 39.21 6.19 37.14 6.19 40.77 18.58 42.76 18.58 45.54 9.14 48.33 18.58 50.33 18.58 53.93 6.19 51.86 6.19 49.31 15.41"/><polygon class="cls-1" points="57.92 13.19 63.63 13.19 63.63 11.31 57.92 11.31 57.92 8.07 64.05 8.07 64.05 6.19 55.94 6.19 55.94 18.58 64.36 18.58 64.36 16.7 57.92 16.7 57.92 13.19"/><rect class="cls-1" x="67.17" y="6.19" width="1.98" height="12.39"/></g></svg>