<svg xmlns="http://www.w3.org/2000/svg" viewBox="0 0 76 24"><defs><style>.cls-1{fill:#1a1a1a;}</style></defs><g id="icon"><path class="cls-1" d="M10.65,8.66a3.85,3.85,0,0,0-1.36-1A3.65,3.65,0,0,0,8,7.4a4.5,4.5,0,0,0-1.79.35,4.06,4.06,0,0,0-1.37,1,4.42,4.42,0,0,0-.9,1.45A5,5,0,0,0,3.59,12a5.43,5.43,0,0,0,.31,1.89,4.35,4.35,0,0,0,.9,1.5,4.12,4.12,0,0,0,1.37,1A4.34,4.34,0,0,0,8,16.69a3.4,3.4,0,0,0,1.51-.37,4.22,4.22,0,0,0,1.36-1.18l1.87,1.33a5.14,5.14,0,0,1-2.11,1.73A6.56,6.56,0,0,1,8,18.74a7.38,7.38,0,0,1-2.71-.48,6.25,6.25,0,0,1-2.13-1.35,6.12,6.12,0,0,1-1.39-2.1,7,7,0,0,1-.51-2.71,7.37,7.37,0,0,1,.51-2.79A6.24,6.24,0,0,1,3.11,7.18,6.12,6.12,0,0,1,5.24,5.82,7.59,7.59,0,0,1,8,5.35a6.15,6.15,0,0,1,2.4.46,5.55,5.55,0,0,1,2.06,1.55Z"/><path class="cls-1" d="M15.13,5.67H17.4v5.08h6V5.67h2.27V18.41H23.35V12.8h-6v5.61H15.13Z"/><path class="cls-1" d="M29.37,5.67h8.44V7.72H31.63v3.13h5.85v2.06H31.63v3.45h6.5v2.05H29.37Z"/><path class="cls-1" d="M39.84,5.67h2.49l2.39,9.18h0l2.86-9.18h2.23l2.81,9.18h0L55.2,5.67h2.3L53.79,18.41H51.63l-3-9.7h0l-3,9.7H43.6Z"/><path class="cls-1" d="M59.82,5.67h8.44V7.72H62.09v3.13h5.85v2.06H62.09v3.45h6.5v2.05H59.82Z"/><path class="cls-1" d="M71.67,5.67h2.26V18.41H71.67Z"/></g></svg>